<svg xmlns="http://www.w3.org/2000/svg" viewBox="0 0 398.58 317.35"><defs><style>.cls-1{fill:#fff;}</style></defs><title>logo</title><g id="Object"><path class="cls-1" d="M773.11,504.37H716.83c-18.69-68.82-80.37-116.52-151.44-116.52-86.61,0-157.08,71.18-157.08,158.68S478.78,705.2,565.39,705.2c76.66,0,142.47-56.68,154.92-132.58h52.8a34.13,34.13,0,0,0,0-68.25Zm0,57.9H711.43l-.6,4.48c-9.86,73-72.38,128.1-145.44,128.1-81,0-146.83-66.54-146.83-148.32S484.43,398.2,565.39,398.2c67.74,0,126.36,46.36,142.55,112.73L709,515.3l4.43-.46a21.32,21.32,0,0,1,2.4-.13h57.28a23.78,23.78,0,0,1,0,47.56Z" transform="translate(-408.31 -387.85)"/><path class="cls-1" d="M567.51,420.75C498.74,420.75,443,477.06,443,546.53s55.74,125.78,124.51,125.78S692,616,692,546.53,636.28,420.75,567.51,420.75Zm-11.06,24.78c3.79,1.06,6.54,5.86,9.72,9h.07c3.18-3.12,5.93-7.92,9.72-9,4.19-1.19,9.51,9.4,6.78,15.19-4.09,8.71-9.44,16.91-15.2,26.59l-1.11,2.63-.23-.38c-.07.13-.15.24-.22.38-.38-.91-.75-1.76-1.11-2.63-5.77-9.68-11.11-17.88-15.2-26.59C546.94,454.93,552.26,444.34,556.45,445.53ZM550.59,476c5.86,9.21,11.49,18.06,16.75,26.31L584.1,473c9.83,23.63-14,33.42-16.78,50.77C551.29,508,543.65,487.06,550.59,476ZM540.5,498.19l26.14,44.71,24.49-49.09c7.78,11.73,6.61,34.28-2.59,43.74-6.87,7.05-14.3,13.53-21,19.85-7.85-6.93-16.07-13.92-24-21.26C533.35,526.74,532,510.77,540.5,498.19Zm7.44,55.15c8.95,6.43,13.48,15.62,15.14,26.45-5.71-12.46-14.58-21.2-28.7-24.37l24.22,26c-24.69-11.31-42-28.14-42-57.71C522.31,539.07,536.25,544.94,547.94,553.34Zm-48.46-8c3,4.58,5.31,7.89,7.45,11.29,8,12.7,19.64,19.4,34,22.8,14.93,3.55,23.08,13.23,24.46,29.14-4.75-12.16-13.67-15.44-23.08-18.21-8.84-2.61-17.55-5.66-26.93-8.71,5.27,10.08,14.14,14.41,23.9,17.8,5.83,2,12.23,3.68,16.93,7.38s7.59,9.73,10,15.91c-8-12.32-20.65-15-33.2-18.32C505.06,597.09,490.56,572.17,499.48,545.34Zm63.93,108c-8.23-5.29-15.94-11.6-24.66-15.81-10.31-5-21.8-7.45-32.18-12.31-20.19-9.46-32.05-34.06-26.35-55.75a16.37,16.37,0,0,1,2.5-5.55c4.95,26.82,23.4,37.5,46.7,43,12.35,2.91,23.56,8.44,31.55,18.91a19.22,19.22,0,0,1,3.91,11.72c-1.89-2-3.46-4.59-5.73-6-8.07-5-15.36-12.83-24.67-14.27a88.46,88.46,0,0,1-36.38-15.34c4,6.89,4.25,8.15,12.68,16.35,6.85,6.67,14.68,6,23.89,8.76,13.48,4.06,26.08,8.92,31.57,23.74.4,1.07,1.82,1.75,1.91,4.52A27.58,27.58,0,0,1,563.41,653.35Zm18.32-102c10.75-10.57,24.22-18.89,27.64-35.65,4.74,30.54-10.49,50.73-34.21,66.4l20.91-30.79c-14.09,5.56-21.87,16-25.79,29.81C570.27,569.7,573.5,559.47,581.73,551.39Zm12.74,32.42c-13.62,3.92-12.56,5.67-20.43,16.84a5.18,5.18,0,0,0-.6-.26c2.56-5.19,5.08-10.42,8.75-14.63,5.44-6.26,13.21-10.37,19.48-16,9.8-8.75,19.19-18,28.31-26.57,5,10.14,1.75,30.12-10.26,40.88-8.91,8-19.89,13.65-30.05,20.17-5.68,3.64-11.47,7-17.08,10.38a13,13,0,0,1,2.57-6.83c5.92-6.06,9.31-12.85,15.68-15.52,7-2.94,15.1-10.7,20.36-16.16C610.52,575.5,602.11,581.19,594.47,583.81ZM655,590.19c-3.56,15.3-14.1,25-27.27,31.79-8,4.1-16.66,6.9-25.14,10-8.92,3.24-18,6.12-29.31,9.94,16.87-18.38,44-15.2,58.57-34.59l-58.62,24.61c1.49-6.2,6.81-11.39,13.81-14.92,8.92-4.48,18.13-8.36,27.08-12.77,18.17-9,30.86-22.2,32.34-46.48C656.47,568.63,657.63,579.07,655,590.19Z" transform="translate(-408.31 -387.85)"/></g></svg>